<?xml version="1.0" encoding="UTF-8"?>
<!DOCTYPE svg PUBLIC "-//W3C//DTD SVG 1.1//EN" "http://www.w3.org/Graphics/SVG/1.1/DTD/svg11.dtd">
<!-- Creator: CorelDRAW 2020 (64-Bit) -->
<svg xmlns="http://www.w3.org/2000/svg" xml:space="preserve" width="211.667mm" height="211.667mm" version="1.1" style="shape-rendering:geometricPrecision; text-rendering:geometricPrecision; image-rendering:optimizeQuality; fill-rule:evenodd; clip-rule:evenodd"
viewBox="0 0 6659 6659"
 xmlns:xlink="http://www.w3.org/1999/xlink"
 xmlns:xodm="http://www.corel.com/coreldraw/odm/2003">
 <defs>
  <style type="text/css">
   <![CDATA[
    .fil0 {fill:none}
    .fil3 {fill:black;fill-rule:nonzero}
    .fil1 {fill:#00AAAA;fill-rule:nonzero}
    .fil2 {fill:#EB2E2E;fill-rule:nonzero}
   ]]>
  </style>
 </defs>
 <g id="图层_x0020_1">
  <metadata id="CorelCorpID_0Corel-Layer"/>
  <rect class="fil0" x="0" y="0" width="6659" height="6659"/>
  <g id="_2047062203360">
   <path class="fil1" d="M1500.45 2183.67c13.77,10.91 20.89,26.11 20.89,46.04 0,11.87 -2.85,25.64 -9.02,41.77 -133.86,382.12 -200.32,761.88 -200.32,1137.85 0,372.64 66.93,751.92 200.32,1137.85 6.18,15.66 9.02,29.9 9.02,41.77 0,19.94 -7.12,35.13 -20.89,46.05 -13.76,10.91 -34.18,16.13 -59.81,16.13l-173.74 0.03c-49.84,0 -84.98,-22.78 -104.91,-68.36 -159.5,-393.99 -239.25,-785.62 -239.25,-1173.92 0,-390.2 79.75,-781.35 239.25,-1173.92 19.94,-45.58 55.06,-68.36 104.91,-68.36l173.74 -0.01c26.11,0.95 46.05,6.18 59.81,17.09z"/>
   <path class="fil1" d="M5069.68 2167.54l173.74 0c49.84,0 84.98,22.78 104.9,68.36 159.5,392.1 239.25,783.25 239.25,1173.92 0,388.3 -79.75,779.46 -239.25,1173.92 -19.94,45.58 -55.06,68.36 -104.9,68.36l-173.74 0c-26.11,0 -46.05,-5.69 -59.81,-16.13 -13.76,-10.91 -20.88,-26.11 -20.88,-46.05 0,-11.87 2.85,-25.63 9.02,-41.77 133.86,-386.41 200.32,-765.69 200.32,-1137.85 0,-376.44 -66.93,-755.72 -200.32,-1137.85 -6.18,-15.66 -9.02,-29.9 -9.02,-41.77 0,-19.94 7.12,-35.13 20.88,-46.04 13.78,-11.88 33.71,-17.1 59.81,-17.1z"/>
   <path class="fil1" d="M1177.18 3553.65c-79.68,0 -144.3,-64.62 -144.3,-144.3 0,-79.69 64.62,-144.3 144.3,-144.3l3984.13 0c79.69,0 144.3,64.62 144.3,144.3 0,79.69 -64.62,144.3 -144.3,144.3l-3984.13 0z"/>
   <path class="fil2" d="M3023.75 3531.34c0,-79.68 64.62,-144.3 144.3,-144.3 79.69,0 144.3,64.62 144.3,144.3l0 2236.78c0,4.6 -0.23,9.15 -0.64,13.64 0.54,56.09 17.92,336.88 313.24,327.28 219.67,-7.17 550.14,-1.99 895.92,3.42 432.01,6.77 888.37,13.9 1175.99,-2.92 94.57,-5.6 212.13,-19.93 298.25,-90.43 89.07,-72.89 157.34,-213.62 161.73,-482.06 10.86,-636.45 0.02,-1155.1 0,-1156.59 -1.24,-79.38 62.1,-144.76 141.48,-146 79.38,-1.24 144.76,62.1 146,141.48 0.01,1.51 10.95,524.21 0,1165.63 -6.04,370.47 -118.88,579.88 -266.58,700.75 -150.59,123.27 -325.48,146.5 -463.98,154.66l-0.57 0c-291.87,17.12 -756.78,9.84 -1196.85,2.95 -341.1,-5.34 -667.11,-10.44 -882.38,-3.42 -581.13,18.88 -609.37,-521.33 -609.81,-617.66 -0.27,-3.55 -0.41,-7.13 -0.41,-10.74l0 -2236.78z"/>
   <path class="fil3" d="M2105.04 366.12c-36.72,-70.35 -9.47,-157.18 60.87,-193.9 70.35,-36.72 157.18,-9.47 193.9,60.87l922.33 1757.32c11.1,21.28 16.35,44.07 16.33,66.52l0.58 0 0 1352.41c0,79.69 -64.62,144.3 -144.3,144.3 -79.68,0 -144.3,-64.62 -144.3,-144.3l0 -1318.13 -905.42 -1725.09z"/>
   <path class="fil3" d="M3280.47 2126.82c-38.59,69.42 -126.18,94.41 -195.6,55.81 -69.42,-38.59 -94.41,-126.18 -55.82,-195.6l976.45 -1757.32c38.59,-69.42 126.18,-94.41 195.6,-55.82 69.42,38.59 94.41,126.18 55.82,195.6l-976.45 1757.32z"/>
  </g>
 </g>
</svg>
