<?xml version="1.0" standalone="no"?>
<!DOCTYPE svg PUBLIC "-//W3C//DTD SVG 20010904//EN"
 "http://www.w3.org/TR/2001/REC-SVG-20010904/DTD/svg10.dtd">
<svg version="1.0" xmlns="http://www.w3.org/2000/svg"
 width="632.000000pt" height="632.000000pt" viewBox="0 0 632.000000 632.000000"
 preserveAspectRatio="xMidYMid meet">
<metadata>
Created by potrace 1.11, written by Peter Selinger 2001-2013
</metadata>
<g transform="translate(0.000000,632.000000) scale(0.100000,-0.100000)"
fill="#000000" stroke="none">
<path d="M2573 4934 c-7 -3 -13 -14 -13 -25 0 -10 117 -253 260 -539 l260
-520 0 -305 0 -305 -476 0 -476 0 6 73 c6 62 11 101 30 209 9 51 36 156 51
202 25 73 26 85 5 96 -21 11 -63 13 -97 4 -46 -12 -132 -299 -149 -497 -12
-136 -6 -354 11 -417 2 -8 6 -31 9 -50 15 -98 95 -342 116 -355 19 -12 102 -7
116 6 12 13 11 24 -7 84 -23 78 -38 137 -45 175 -3 14 -7 32 -9 40 -3 8 -7 33
-10 55 -4 22 -8 51 -10 65 -2 14 -7 55 -10 93 l-7 67 481 0 481 0 1 -552 c0
-304 2 -563 5 -576 25 -136 117 -258 242 -321 99 -50 132 -52 717 -49 529 3
541 4 599 26 101 37 178 100 231 188 65 108 69 132 70 489 1 176 -2 335 -7
352 -15 57 -85 74 -124 31 -18 -19 -19 -45 -21 -358 -2 -298 -5 -344 -21 -384
-27 -69 -83 -130 -149 -163 l-58 -28 -555 0 -555 0 -49 24 c-59 30 -119 90
-149 151 -22 45 -22 48 -25 608 l-3 562 323 1 c567 0 613 0 625 0 31 -2 -16
-305 -75 -489 -23 -72 -24 -84 -12 -92 18 -12 100 -13 117 -2 21 13 89 200
107 292 3 14 9 49 15 79 28 139 32 412 8 526 -3 11 -8 40 -12 65 -17 111 -93
336 -118 352 -19 12 -92 9 -110 -4 -15 -12 -14 -21 13 -113 36 -122 67 -284
74 -387 l5 -78 -474 0 -475 0 0 305 0 305 260 520 c143 286 260 528 260 539 0
10 -7 22 -16 25 -26 10 -114 7 -136 -5 -18 -10 -275 -517 -373 -739 -21 -47
-41 -89 -45 -95 -4 -5 -10 -22 -14 -37 -3 -16 -10 -28 -14 -28 -4 0 -30 48
-57 108 -106 234 -383 789 -396 794 -19 7 -131 8 -146 2z"/>
</g>
</svg>
